<svg version="1.1" xmlns="http://www.w3.org/2000/svg" xmlns:xlink="http://www.w3.org/1999/xlink" viewBox="655.62 8.368 1159.027 1158.534" xml:space="preserve">
<g>
	<path d="M1086.708,467.355c0-17.879-13.742-16.743-25.104-16.743c0,10.511,0,26.313,0,33.626
		C1076.516,484.239,1086.708,485.837,1086.708,467.355z"/>
	<polygon points="923.37,421.425 923.153,421.46 921.793,426.609 899.222,512.114 923.546,512.077 923.375,424.195 	"/>
	<path d="M1547.006,420.395h-0.178c0,0,0,0.746,0,0.994c0,22.273,0,89.091,0,89.091h24.714c0,0-18.196-66.82-24.267-89.092
		C1547.209,421.139,1547.006,420.395,1547.006,420.395z"/>
	<path d="M1235.342,7.459c-320.172,0-579.722,259.55-579.722,579.721s259.55,579.722,579.722,579.722
		c320.171,0,579.721-259.551,579.721-579.722S1555.512,7.459,1235.342,7.459z M1435.625,295.12l-26.339,24.999l-0.054,52.695
		h-94.701l-0.078-77.723L1435.625,295.12z M1282.643,294.978l-0.212,77.267l-95.164,0.177l-0.071-77.551L1282.643,294.978z
		 M1154.706,294.978l-0.106,77.551h-94.204l-0.106-51.949l-27.165-25.602H1154.706z M1151.197,884.84
		c0,34.172-14.486,59.985-52,59.985c-37.514,0-52-25.813-52-59.985v-83.758h27.3v78.372c0,17.271,1.485,41.6,24.7,41.6
		s24.7-24.328,24.7-41.6v-78.372h27.3V884.84z M1033.125,740.291l27.165-25.602l0.106-51.949h94.204l0.106,77.551H1033.125z
		 M1291.594,943.898h-19.686l-73.729-97.872h-0.372v95.086h-27.3V797.368h19.686l73.729,97.872h0.372v-94.158h27.3V943.898z
		 M1187.197,740.397l0.071-77.55l95.164,0.177l0.212,77.268L1187.197,740.397z M1338.761,941.112h-27.301V801.082h27.301V941.112z
		 M1432.361,824.854h-28.229v116.258h-27.3V824.854h-28.229v-23.771h83.758V824.854z M1314.453,740.178l0.078-77.723h94.701
		l0.054,52.694l26.339,25.001L1314.453,740.178z M1599.558,635.292l-14.95-62.317l-37.923-0.177l0.07,62.53l-138.197-0.036
		l0.066-121.084l-34.724,121.084h-58.376l-32.846-120.658l-0.143,120.658h-196.326v-86.82c0,0,0.177-12.354-16.334-12.354
		c-2.21,0-8.842,0.07-8.842,0.07v99.104H923.58l-0.176-60.679l-37.711-0.211l-14.522,60.89H748.453v-3.124l89.872-277.429h187.38
		v40.799c0,0,0.177,0.334,0.276,0.501c37.101-0.044,86.938-0.071,104.864,0.066c41.013,0.315,56.495,31.354,56.495,31.354
		l0.319,0.132v-33.191h127.654l28.051,98.732l27.556-98.839l73.487,0.068l0.051-0.53v-40.622h187.309l90.049,277.394v4.687H1599.558
		z"/>
	<path d="M1187.275,474c-0.727,2.578-8.343,26.958-38.037,33c21.912,4.819,38.101,38.917,38.101,38.917s0.213,0.083,0.319,0.083v-72
		C1187.526,474,1187.399,474,1187.275,474z"/>
</g>
</svg>