<svg version="1.1" id="Ebene_1" xmlns="http://www.w3.org/2000/svg" xmlns:xlink="http://www.w3.org/1999/xlink" viewBox="655.62 8.368 1159.027 1158.534" style="enable-background:new 655.62 8.368 1159.027 1158.534;" xml:space="preserve">
<g>
	<path d="M1350.868,328.429c-78.142,188.47-179.78,405.812-241.242,565.093c152.075-7.861,320.654-137.393,376.18-286.95
		C1533.107,479.109,1494.331,348.085,1350.868,328.429z"/>
	<path d="M1235.342,7.459c-320.172,0-579.722,259.55-579.722,579.721s259.55,579.722,579.722,579.722
		c320.171,0,579.721-259.551,579.721-579.722S1555.512,7.459,1235.342,7.459z M1521.211,613.633
		c-69.653,189.35-266.321,308.895-423.983,312.738c-7.454,20.246-14.1,39.329-19.785,57.044c-1.844,6.872-3.542,13.533-5.078,19.962
		c-2.896,9.68-5.866,18.941-8.654,27.68c3.569-14.449,8.199-30.401,13.732-47.642c4.738-17.657,10.458-36.733,16.995-57.003
		c-1.672,0.026-3.346,0.059-5.009,0.059c-153.285,0-239.084-108.285-221.117-249.186c1.1,17.471,3.935,34.789,8.464,51.697
		c15.58,58.184,48.064,103.748,82.88,122.303c32.535,27.043,78.133,42.617,135.48,42.617c3.387,0,6.787-0.086,10.193-0.21
		c54.961-160.572,150.753-381.358,217.558-567.588c-3.509-0.121-7.052-0.204-10.667-0.204c-137.52,0-289.56,98.539-363.257,224.913
		c-8.096-1.301-16.135-1.193-23.937,0.928c-7.914,2.098-15.025,6.08-21.446,11.359c75.204-154.767,246.195-271.59,412.804-271.59
		c6.308,0,12.478,0.188,18.519,0.546c24.916-71.868,44.622-137.413,54.782-190.75c15.286,2.681,29.668,5.861,42.963,9.872
		c-17.059,54.075-40.819,116.874-68.195,184.183C1519.91,321.382,1572.211,474.847,1521.211,613.633z"/>
</g>
</svg>