<svg version="1.1" xmlns:svg="http://www.w3.org/2000/svg" xmlns="http://www.w3.org/2000/svg" xmlns:xlink="http://www.w3.org/1999/xlink" viewBox="40.613 -85.985 872.957 872.958" xml:space="preserve">
<g>
	<path class="st0" d="M377.306,325.082c-30.497,0-54.573,26.216-54.573,58.853c0,32.639,24.611,58.856,54.573,58.856
		c30.497,0,54.574-26.218,54.574-58.856C432.416,351.298,407.803,325.082,377.306,325.082z"/>
	<path class="st0" d="M572.595,325.082c-30.497,0-54.574,26.216-54.574,58.853c0,32.639,24.612,58.856,54.574,58.856
		c30.498,0,54.575-26.218,54.575-58.856C627.171,351.298,602.558,325.082,572.595,325.082z"/>
	<path class="st0" d="M477.092-85.985c-241.061,0-436.479,195.418-436.479,436.479c0,241.06,195.418,436.479,436.479,436.479
		S913.57,591.553,913.57,350.493C913.57,109.433,718.152-85.985,477.092-85.985z M626.1,572.804c0,0-19.263-23.007-35.313-42.802
		c70.09-19.797,96.842-63.134,96.842-63.134c-21.937,14.444-42.802,24.61-61.528,31.565c-26.752,11.235-52.435,18.19-77.582,23.005
		c-51.364,9.632-98.446,6.957-138.574-0.533c-30.497-5.887-56.715-13.91-78.651-23.006c-12.307-4.816-25.682-10.702-39.057-18.193
		c-1.605-1.069-3.211-1.604-4.816-2.675c-1.069-0.535-1.604-1.068-2.139-1.068c-9.631-5.352-14.982-9.095-14.982-9.095
		s25.683,42.266,93.632,62.598c-16.051,20.33-35.847,43.873-35.847,43.873c-118.244-3.747-163.188-80.791-163.188-80.791
		c0-170.677,77.046-309.253,77.046-309.253c72.23-53.671,140.698-55.614,148.975-55.647c0.553-0.002,0.835,0.005,0.835,0.005
		l5.351,6.419c-96.306,27.287-140.18,69.557-140.18,69.557s11.772-6.422,31.569-14.982c57.248-25.146,102.726-31.566,121.452-33.707
		c3.21-0.534,5.885-1.069,9.095-1.069c32.638-4.28,69.557-5.351,108.079-1.07c50.831,5.885,105.402,20.866,161.046,50.829
		c0,0-42.268-40.129-133.225-67.416l7.489-8.56c0,0,73.302-1.606,149.813,55.643c0,0,77.045,138.576,77.045,309.253
		C789.287,492.014,744.344,569.059,626.1,572.804z"/>
</g>
</svg>