<svg version="1.1" xmlns="http://www.w3.org/2000/svg" xmlns:xlink="http://www.w3.org/1999/xlink"
	 width="452px" height="451.847px" viewBox="0 0 452 451.847" style="enable-background:new 0 0 452 451.847;" xml:space="preserve">
<path d="M226-0.153c-124.816,0-226,101.184-226,226s101.184,226,226,226s226-101.184,226-226S350.816-0.153,226-0.153z
	 M372.054,189.347H142.212c0,0,0.254,35.921,18.521,73.065c18.773,35.763,44.65,58.727,65.977,67.88
	c22.058-10.408,43.369-28.478,54.953-47.945h-60.49c-15.668-13.107-28.041-34.857-30.832-60h177.633
	c-8.756,40.418-27.346,77.181-45.055,100.591c-28.332,37.452-64.186,59.526-96.053,71.409h-0.563
	c-63.721-25.63-97.959-65.977-120.617-111.553c-14.51-29.184-29.683-82.186-29.683-153.447h299.994
	C375.997,151.068,374.602,171.017,372.054,189.347z"/>
</svg>
